# xmcd CD database file
#
# Track frame offsets:
#	150
#	17814
#	30047
#	49933
#	68599
#	85708
#	100045
#	114718
#	133263
#	144771
#	159439
#
# Disc length: 2317 seconds
#
# Revision: 1
# Processed by: cddbd v1.5.2PL0 Copyright (c) Steve Scherf et al.
# Submitted via: jetAudio 7
#
DISCID=80090b0b
DTITLE=Michael Jackson - The Stripped Mixes
DYEAR=2009
DGENRE=Pop
TTITLE0=I'll Be There
TTITLE1=Ben
TTITLE2=Who's Loving You
TTITLE3=Ain't No Sunshine
TTITLE4=I Want You Back
TTITLE5=ABC
TTITLE6=We've Got A Good Thing Going
TTITLE7=With A Child's Heart
TTITLE8=Darling Dear
TTITLE9=Got To Be There
TTITLE10=Never Can Say Goodbye
EXTD=
EXTT0=
EXTT1=
EXTT2=
EXTT3=
EXTT4=
EXTT5=
EXTT6=
EXTT7=
EXTT8=
EXTT9=
EXTT10=
PLAYORDER=
